<svg xmlns="http://www.w3.org/2000/svg" version="1.1" xmlns:xlink="http://www.w3.org/1999/xlink" xmlns:svgjs="http://svgjs.dev/svgjs" width="1440" height="560" preserveAspectRatio="none" viewBox="0 0 1440 560"><g mask="url(&quot;#SvgjsMask1040&quot;)" fill="none"><path d="M283.3308854286773 408.6504520941988L426.0778589394472 332.7505399373912 350.17794678263954 190.00356642662126 207.43097327186968 265.90347858342886z" fill="rgba(28, 83, 142, 0.4)" class="triangle-float2"></path><path d="M137.127,604.948C188.392,607.018,241.286,590.613,268.61,547.187C297.563,501.171,300.285,439.629,269.218,395.013C241.232,354.823,186.048,356.085,137.127,358.364C93.515,360.396,48.267,369.61,24.762,406.402C-0.412,445.805,-0.197,496.571,22.833,537.264C46.207,578.565,89.71,603.033,137.127,604.948" fill="rgba(28, 83, 142, 0.4)" class="triangle-float1"></path><path d="M1266.835,613.305C1315.288,614.305,1364.055,596.64,1389.501,555.395C1416.147,512.205,1417.899,455.87,1390.194,413.352C1364.501,373.922,1313.895,367.547,1266.835,367.146C1218.79,366.736,1165.177,370.432,1139.776,411.216C1113.356,453.636,1126.036,508.198,1152.636,550.506C1177.419,589.923,1220.284,612.344,1266.835,613.305" fill="rgba(28, 83, 142, 0.4)" class="triangle-float2"></path><path d="M851.8536586621261 94.0335491804579L667.152041684717 44.35418925028991 707.6005757379227 206.58439842036256z" fill="rgba(28, 83, 142, 0.4)" class="triangle-float1"></path><path d="M1402.423,715.235C1448.476,713.952,1495.378,696.463,1516.799,655.675C1537.112,616.996,1518.942,572.815,1497.084,534.987C1475.245,497.192,1446.074,457.73,1402.423,457.739C1358.782,457.748,1330.71,497.864,1307.831,535.027C1283.266,574.93,1254.667,620.884,1276.445,662.374C1299.13,705.591,1353.633,716.595,1402.423,715.235" fill="rgba(28, 83, 142, 0.4)" class="triangle-float3"></path><path d="M1194.556,364.906C1216.062,364.72,1236.492,352.971,1246.032,333.696C1254.73,316.123,1246.301,296.739,1236.78,279.598C1226.858,261.734,1214.979,241.682,1194.556,241.016C1173.409,240.326,1157.708,258.271,1147.275,276.678C1137.021,294.769,1131.692,316.271,1141.514,334.6C1151.823,353.837,1172.732,365.095,1194.556,364.906" fill="rgba(28, 83, 142, 0.4)" class="triangle-float3"></path><path d="M324.00816449533136-21.760654080295552L307.2726215387144 137.4674009482556 466.5006765672656 154.2029439048725 483.2362195238825-5.025111123678638z" fill="rgba(28, 83, 142, 0.4)" class="triangle-float1"></path><path d="M586.6224844971026-57.33996448119761L502.2701390504436 3.94560182279951 563.5557053544408 88.2979472694585 647.9080508010998 27.01238096546139z" fill="rgba(28, 83, 142, 0.4)" class="triangle-float3"></path><path d="M542.8009761453538 196.90592498648152L618.3255684015163 333.15589611400094 679.0509472728733 121.38133273031909z" fill="rgba(28, 83, 142, 0.4)" class="triangle-float3"></path><path d="M327.043,704.703C372.804,707.658,420.581,687.395,441.479,646.578C461.12,608.216,440.852,564.493,417.314,528.39C396.448,496.385,365.157,473.709,327.043,471.054C283.268,468.005,233.544,475.86,212.003,514.09C190.692,551.912,213.199,596.117,235.631,633.285C257.046,668.768,285.685,702.032,327.043,704.703" fill="rgba(28, 83, 142, 0.4)" class="triangle-float3"></path><path d="M-86.06074899527299 136.23172739828928L-27.025257973122095 257.27242143052547 34.97994503696319 77.19623637613839z" fill="rgba(28, 83, 142, 0.4)" class="triangle-float2"></path><path d="M-16.218,476.03C5.847,477.799,31.104,475.138,42.463,456.138C54.004,436.833,44.567,413.128,32.872,393.916C21.76,375.662,5.15,360.056,-16.218,359.741C-38.057,359.419,-58.057,372.924,-67.878,392.432C-76.862,410.277,-71.093,430.88,-60.59,447.876C-50.721,463.847,-34.932,474.53,-16.218,476.03" fill="rgba(28, 83, 142, 0.4)" class="triangle-float1"></path><path d="M926.0083279623381 350.5899202395066L939.5455255569408 460.84154711389465 1036.2599548367261 337.05272264490395z" fill="rgba(28, 83, 142, 0.4)" class="triangle-float2"></path><path d="M1452.789996142715 224.86953801903152L1367.5114032697625 165.15682444147347 1307.7986896922046 250.43541731442585 1393.0772825651568 310.1481308919839z" fill="rgba(28, 83, 142, 0.4)" class="triangle-float2"></path><path d="M933.406,251.218C983.52,252.38,1029.414,222.866,1053.714,179.023C1077.304,136.461,1073.759,84.715,1048.868,42.901C1024.566,2.076,980.903,-24.234,933.406,-23.083C887.721,-21.976,849.704,8.473,827.247,48.272C805.217,87.314,801.614,133.934,822.393,173.657C844.818,216.528,885.037,250.096,933.406,251.218" fill="rgba(28, 83, 142, 0.4)" class="triangle-float1"></path><path d="M1088.8517823888974 117.49043864927705L1098.639747806329 6.828262815564713 1009.9218734071297 46.3280053976881z" fill="rgba(28, 83, 142, 0.4)" class="triangle-float2"></path><path d="M1015.4993618043045 231.50427599795609L1061.1086179330282 91.58727627165297 934.8284905403573 116.13364647219085z" fill="rgba(28, 83, 142, 0.4)" class="triangle-float2"></path></g><defs><mask id="SvgjsMask1040"><rect width="1440" height="560" fill="#ffffff"></rect></mask><style>
                @keyframes float1 {
                    0%{transform: translate(0, 0)}
                    50%{transform: translate(-10px, 0)}
                    100%{transform: translate(0, 0)}
                }

                .triangle-float1 {
                    animation: float1 5s infinite;
                }

                @keyframes float2 {
                    0%{transform: translate(0, 0)}
                    50%{transform: translate(-5px, -5px)}
                    100%{transform: translate(0, 0)}
                }

                .triangle-float2 {
                    animation: float2 4s infinite;
                }

                @keyframes float3 {
                    0%{transform: translate(0, 0)}
                    50%{transform: translate(0, -10px)}
                    100%{transform: translate(0, 0)}
                }

                .triangle-float3 {
                    animation: float3 6s infinite;
                }
            </style></defs></svg>