<svg xmlns="http://www.w3.org/2000/svg" version="1.1" xmlns:xlink="http://www.w3.org/1999/xlink" xmlns:svgjs="http://svgjs.dev/svgjs" width="1440" height="560" preserveAspectRatio="none" viewBox="0 0 1440 560"><g mask="url(&quot;#SvgjsMask1009&quot;)" fill="none"><rect width="1440" height="560" x="0" y="0" fill="#0e2a47"></rect><path d="M1207.8858969615092 453.96738397450315L1293.5563711265597 441.9271840259973 1281.516171178054 356.25670986094667 1195.8456970130032 368.2969098094525z" fill="rgba(72, 19, 115, 0.4)" class="triangle-float2"></path><path d="M137.05 333.94 a147.13 147.13 0 1 0 294.26 0 a147.13 147.13 0 1 0 -294.26 0z" fill="rgba(72, 19, 115, 0.4)" class="triangle-float1"></path><path d="M640.6161792388505 382.6973219137575L578.8608661229321 481.5264818449033 677.6900260540779 543.2817949608217 739.4453391699963 444.4526350296759z" fill="rgba(72, 19, 115, 0.4)" class="triangle-float1"></path><path d="M1163.7947881937146 122.43368791019948L1101.7553284048354 211.03521874704478 1190.3568592416807 273.0746785359239 1252.3963190305599 184.4731476990786z" fill="rgba(72, 19, 115, 0.4)" class="triangle-float1"></path><path d="M907.21 495.49 a114.51 114.51 0 1 0 229.02 0 a114.51 114.51 0 1 0 -229.02 0z" fill="rgba(72, 19, 115, 0.4)" class="triangle-float3"></path><path d="M1246.633,368.564C1271.309,368.126,1295.683,359.127,1308.647,338.126C1322.253,316.085,1323.953,287.57,1310.167,265.641C1297.102,244.859,1271.176,239.033,1246.633,239.482C1223.038,239.914,1199.913,248.14,1187.003,267.895C1172.78,289.66,1167.436,318.026,1180.687,340.396C1193.744,362.438,1221.018,369.018,1246.633,368.564" fill="rgba(72, 19, 115, 0.4)" class="triangle-float3"></path><path d="M1177.5203536969739 42.876741145357826L1132.4910613925042-53.92965088496951 1077.6325745929253 21.57657853037754z" fill="rgba(72, 19, 115, 0.4)" class="triangle-float2"></path><path d="M1040.72 173.86 a112.98 112.98 0 1 0 225.96 0 a112.98 112.98 0 1 0 -225.96 0z" fill="rgba(72, 19, 115, 0.4)" class="triangle-float3"></path><path d="M935.058272687201 159.6646970389358L911.7605764189466 65.84191330557965 849.9563391516785 123.47529694453848z" fill="rgba(72, 19, 115, 0.4)" class="triangle-float2"></path><path d="M383.89946574128504-48.416972282807095L266.3276672793558-44.311274609987834 270.4333649521751 73.26052385194139 388.0051634141043 69.15482617912213z" fill="rgba(72, 19, 115, 0.4)" class="triangle-float2"></path><path d="M389.46 551.08 a146.5 146.5 0 1 0 293 0 a146.5 146.5 0 1 0 -293 0z" fill="rgba(72, 19, 115, 0.4)" class="triangle-float3"></path><path d="M729.7415450618547 94.65593498821949L794.3360577539769 22.916460803055415 722.5965835688129-41.67805188906681 658.0020708766906 30.061422296097277z" fill="rgba(72, 19, 115, 0.4)" class="triangle-float3"></path><path d="M299.5398565406008 389.077730778555L202.82787653001463 307.92674402124766 121.67688977270728 404.6387240318338 218.38886978329344 485.78971078914117z" fill="rgba(72, 19, 115, 0.4)" class="triangle-float2"></path><path d="M914.57,65.994C939.391,66.174,960.828,49.042,971.984,26.868C982.105,6.75,977.541,-16.638,965.816,-35.866C954.635,-54.201,936.019,-66.219,914.57,-67.281C890.973,-68.45,865.86,-61.679,853.706,-41.419C841.274,-20.696,846.666,5.021,858.58,26.046C870.694,47.425,889.998,65.816,914.57,65.994" fill="rgba(72, 19, 115, 0.4)" class="triangle-float1"></path><path d="M771.56 429.88 a152.35 152.35 0 1 0 304.7 0 a152.35 152.35 0 1 0 -304.7 0z" fill="rgba(72, 19, 115, 0.4)" class="triangle-float1"></path><path d="M-124.92 327.74 a178.37 178.37 0 1 0 356.74 0 a178.37 178.37 0 1 0 -356.74 0z" fill="rgba(72, 19, 115, 0.4)" class="triangle-float3"></path><path d="M1354.715694376889 269.4716896709791L1449.6649740480668 276.11119009471736 1456.3044744718052 181.16191042353938 1361.355194800627 174.52240999980117z" fill="rgba(72, 19, 115, 0.4)" class="triangle-float1"></path></g><defs><mask id="SvgjsMask1009"><rect width="1440" height="560" fill="#ffffff"></rect></mask><style>
                @keyframes float1 {
                    0%{transform: translate(0, 0)}
                    50%{transform: translate(-10px, 0)}
                    100%{transform: translate(0, 0)}
                }

                .triangle-float1 {
                    animation: float1 5s infinite;
                }

                @keyframes float2 {
                    0%{transform: translate(0, 0)}
                    50%{transform: translate(-5px, -5px)}
                    100%{transform: translate(0, 0)}
                }

                .triangle-float2 {
                    animation: float2 4s infinite;
                }

                @keyframes float3 {
                    0%{transform: translate(0, 0)}
                    50%{transform: translate(0, -10px)}
                    100%{transform: translate(0, 0)}
                }

                .triangle-float3 {
                    animation: float3 6s infinite;
                }
            </style></defs></svg>