<svg xmlns="http://www.w3.org/2000/svg" version="1.1" xmlns:xlink="http://www.w3.org/1999/xlink" xmlns:svgjs="http://svgjs.dev/svgjs" width="1440" height="560" preserveAspectRatio="none" viewBox="0 0 1440 560"><g mask="url(&quot;#SvgjsMask1005&quot;)" fill="none"><rect width="1440" height="560" x="0" y="0" fill="rgba(25, 84, 123, 1)"></rect><path d="M103.13902098056137 398.26597119466527L-61.39767386708485 317.8218640727682-53.01863055321297 477.70353485715225z" fill="rgba(23, 164, 108, 0.4)" class="triangle-float1"></path><path d="M1277.342,324.358C1313.322,324.759,1350.873,315.968,1370.348,285.712C1391.293,253.171,1390.294,211.469,1371.932,177.403C1352.549,141.443,1318.138,111.041,1277.342,113.161C1238.91,115.158,1216.253,152.343,1198.371,186.42C1182.132,217.366,1170.497,253.347,1187.861,283.676C1205.309,314.152,1242.227,323.966,1277.342,324.358" fill="rgba(23, 164, 108, 0.4)" class="triangle-float3"></path><path d="M28.373806275703167 187.15171685304884L101.81010620625358 215.34127126246088 107.37628785509642 91.09204416192924z" fill="rgba(23, 164, 108, 0.4)" class="triangle-float1"></path><path d="M1513.283,548.043C1568.082,550.09,1620.33,523.924,1649.646,477.581C1681.166,427.754,1691.376,364.11,1661.959,313.014C1632.49,261.828,1572.206,236.661,1513.283,240.722C1460.551,244.356,1420.962,284.562,1396.318,331.322C1373.545,374.533,1370.297,425.027,1393.496,468.011C1417.941,513.304,1461.85,546.121,1513.283,548.043" fill="rgba(23, 164, 108, 0.4)" class="triangle-float1"></path><path d="M1324.8223802165455 463.6286592408385L1278.6767677041994 527.1426460119002 1397.020554116965 564.6040713948887z" fill="rgba(23, 164, 108, 0.4)" class="triangle-float1"></path><path d="M549.6784833592045 299.86762026455636L495.82283313897085 386.05467689595355 582.0098897703681 439.91032711618726 635.8655399906017 353.7232704847901z" fill="rgba(23, 164, 108, 0.4)" class="triangle-float1"></path><path d="M1195.538,556.394C1220.889,556.345,1235.576,530.688,1247.956,508.565C1259.928,487.172,1272.352,462.261,1260.095,441.03C1247.838,419.799,1220.052,417.957,1195.538,417.771C1170.561,417.582,1141.796,418.431,1129.265,440.039C1116.711,461.686,1130.382,487.025,1142.767,508.769C1155.336,530.836,1170.142,556.443,1195.538,556.394" fill="rgba(23, 164, 108, 0.4)" class="triangle-float3"></path><path d="M1055.3828885385442 94.51794458537147L1152.2977833433074 80.89744437441561 1083.409585624492-57.664647727251406z" fill="rgba(23, 164, 108, 0.4)" class="triangle-float1"></path><path d="M840.9611387499233 127.27376905264754L759.4426101800375 268.46800229394483 900.6368434213348 349.9865308638306 982.1553719912206 208.7922976225333z" fill="rgba(23, 164, 108, 0.4)" class="triangle-float2"></path><path d="M1.619076045855195 380.5187022557765L85.68831686380675 229.19406878346365-65.63631660850609 229.19406878346368z" fill="rgba(23, 164, 108, 0.4)" class="triangle-float3"></path><path d="M1237.278,468.485C1252.981,469.53,1268.483,461.81,1276.38,448.197C1284.302,434.539,1282.484,417.753,1274.662,404.038C1266.76,390.184,1253.198,378.677,1237.278,379.637C1222.444,380.531,1213.453,394.75,1206.963,408.119C1201.437,419.502,1200.58,432.222,1206.259,443.53C1212.642,456.24,1223.086,467.54,1237.278,468.485" fill="rgba(23, 164, 108, 0.4)" class="triangle-float3"></path><path d="M-50.01 538.66 a135.1 135.1 0 1 0 270.2 0 a135.1 135.1 0 1 0 -270.2 0z" fill="rgba(23, 164, 108, 0.4)" class="triangle-float2"></path><path d="M1054.756,273.031C1072.682,273.448,1090.993,268.128,1100.838,253.142C1111.647,236.688,1114.474,214.774,1103.966,198.126C1093.975,182.296,1073.407,178.541,1054.756,180.131C1038.932,181.48,1026.373,191.815,1018.211,205.438C1009.759,219.545,1004.427,236.613,1012.248,251.079C1020.377,266.114,1037.669,272.633,1054.756,273.031" fill="rgba(23, 164, 108, 0.4)" class="triangle-float1"></path><path d="M108.8303690915887 290.59284078116855L160.1375070367536 349.6149513382165 223.01710389974303 243.1431891419452z" fill="rgba(23, 164, 108, 0.4)" class="triangle-float3"></path><path d="M1376.1720008818613 394.4746686879071L1287.6677890213057 370.7600365931183 1352.4573687870725 482.9788805484627z" fill="rgba(23, 164, 108, 0.4)" class="triangle-float2"></path><path d="M206.1 382.74 a153.54 153.54 0 1 0 307.08 0 a153.54 153.54 0 1 0 -307.08 0z" fill="rgba(23, 164, 108, 0.4)" class="triangle-float3"></path><path d="M350.58446292781673 272.77200722371407L286.25830788613746 156.72455161553103 170.21085227795442 221.0507066572103 234.5370073196337 337.09816226539334z" fill="rgba(23, 164, 108, 0.4)" class="triangle-float2"></path></g><defs><mask id="SvgjsMask1005"><rect width="1440" height="560" fill="#ffffff"></rect></mask><style>
                @keyframes float1 {
                    0%{transform: translate(0, 0)}
                    50%{transform: translate(-10px, 0)}
                    100%{transform: translate(0, 0)}
                }

                .triangle-float1 {
                    animation: float1 5s infinite;
                }

                @keyframes float2 {
                    0%{transform: translate(0, 0)}
                    50%{transform: translate(-5px, -5px)}
                    100%{transform: translate(0, 0)}
                }

                .triangle-float2 {
                    animation: float2 4s infinite;
                }

                @keyframes float3 {
                    0%{transform: translate(0, 0)}
                    50%{transform: translate(0, -10px)}
                    100%{transform: translate(0, 0)}
                }

                .triangle-float3 {
                    animation: float3 6s infinite;
                }
            </style></defs></svg>