<svg xmlns="http://www.w3.org/2000/svg" version="1.1" xmlns:xlink="http://www.w3.org/1999/xlink" xmlns:svgjs="http://svgjs.dev/svgjs" width="1440" height="560" preserveAspectRatio="none" viewBox="0 0 1440 560"><g mask="url(&quot;#SvgjsMask1006&quot;)" fill="none"><rect width="1440" height="560" x="0" y="0" fill="rgba(255, 243, 196, 1)"></rect><path d="M401.84 50.94a13.75 13.75 0 1 0-8.01-26.31z" fill="#e73635"></path><path d="M925.79 127.88a38.24 38.24 0 1 0 26.57 71.72z" stroke="#e73635"></path><path d="M763.94 268.35L789.21 268.35L789.21 272.2L763.94 272.2z" stroke="#e73635"></path><path d="M1206.98 499.2L1213.12 499.2L1213.12 502.2L1206.98 502.2z" stroke="#d3b714"></path><path d="M41.85 460.04a22.04 22.04 0 1 0 4.48-43.85z" stroke="#037b0b"></path><path d="M111.03 458.42 a24.82 24.82 0 1 0 49.64 0 a24.82 24.82 0 1 0 -49.64 0z" fill="#037b0b"></path><path d="M1058.46 385.9L1105.68 385.9L1105.68 403.86L1058.46 403.86z" fill="#d3b714"></path><path d="M975.61 335.46 a49.63 49.63 0 1 0 99.26 0 a49.63 49.63 0 1 0 -99.26 0z" stroke="#d3b714"></path><path d="M1255.63 419.99 a54.32 54.32 0 1 0 108.64 0 a54.32 54.32 0 1 0 -108.64 0z" stroke="#037b0b"></path><path d="M174.74 187.97 a35.85 35.85 0 1 0 71.7 0 a35.85 35.85 0 1 0 -71.7 0z" stroke="#037b0b"></path><path d="M752.79 428.2L765.86 428.2L765.86 432.02L752.79 432.02z" fill="#d3b714"></path><path d="M95.08 483.52 a32.67 32.67 0 1 0 65.34 0 a32.67 32.67 0 1 0 -65.34 0z" fill="#d3b714"></path><path d="M128.07 144.54L160.08 144.54L160.08 176.55L128.07 176.55z" stroke="#e73635"></path><path d="M1148.26 350.47L1193.23 350.47L1193.23 395.44L1148.26 395.44z" fill="#037b0b"></path><path d="M292.9 251.01L320.44 251.01L320.44 278.55L292.9 278.55z" stroke="#e73635"></path><path d="M584.58 287.59L613.9 287.59L613.9 316.91L584.58 316.91z" stroke="#e73635"></path><path d="M77.4 53.83L103.15 53.83L103.15 82.46L77.4 82.46z" stroke="#037b0b"></path><path d="M1115.29 150.83 a15.44 15.44 0 1 0 30.88 0 a15.44 15.44 0 1 0 -30.88 0z" stroke="#e73635"></path><path d="M638.69 473.06L689.29 473.06L689.29 523.66L638.69 523.66z" stroke="#e73635"></path><path d="M540.84 173.19L588.77 173.19L588.77 221.12L540.84 221.12z" fill="#d3b714"></path><path d="M206.8 434.27L255.79 434.27L255.79 483.26L206.8 483.26z" fill="#e73635"></path><path d="M935.01 475.1L980.64 475.1L980.64 530.08L935.01 530.08z" fill="#e73635"></path><path d="M975.84 522.8a43.78 43.78 0 1 0 4.49-87.44z" stroke="#037b0b"></path><path d="M1272 344.61a35.77 35.77 0 1 0 3.62-71.44z" fill="#e73635"></path><path d="M616.6 142.22 a23.62 23.62 0 1 0 47.24 0 a23.62 23.62 0 1 0 -47.24 0z" stroke="#e73635"></path><path d="M612.7 309.79L649.08 309.79L649.08 364.13L612.7 364.13z" stroke="#e73635"></path><path d="M559.75 96.72a11.08 11.08 0 1 0 3.01-21.95z" stroke="#e73635"></path><path d="M449.67 291.25L463.12 291.25L463.12 334.69L449.67 334.69z" fill="#d3b714"></path><path d="M563.03 59.5a3.42 3.42 0 1 0 3.74 5.73z" stroke="#e73635"></path><path d="M373.17 367.73a44.22 44.22 0 1 0-39.6 79.08z" stroke="#037b0b"></path><path d="M986.04 509.88a42.93 42.93 0 1 0-83.55 19.79z" fill="#d3b714"></path><path d="M927.01 210.99L938.08 210.99L938.08 247.01L927.01 247.01z" stroke="#037b0b"></path><path d="M85.7 61.78L129.75 61.78L129.75 105.83L85.7 105.83z" fill="#037b0b"></path></g><defs><mask id="SvgjsMask1006"><rect width="1440" height="560" fill="#ffffff"></rect></mask></defs></svg>