<svg xmlns="http://www.w3.org/2000/svg" version="1.1" xmlns:xlink="http://www.w3.org/1999/xlink" xmlns:svgjs="http://svgjs.dev/svgjs" width="1440" height="560" preserveAspectRatio="none" viewBox="0 0 1440 560"><g mask="url(&quot;#SvgjsMask1033&quot;)" fill="none"><rect width="1440" height="560" x="0" y="0" fill="rgba(15, 23, 42, 1)"></rect><path d="M555.38 445.14 a7.68 7.68 0 1 0 15.36 0 a7.68 7.68 0 1 0 -15.36 0z" stroke="rgba(136, 200, 140, 1)"></path><path d="M842.09 92.73L844.04 92.73L844.04 122.74L842.09 122.74z" fill="#d3b714"></path><path d="M819.76 395.75a51.79 51.79 0 1 0-81.58 63.83z" fill="rgba(136, 200, 140, 1)"></path><path d="M1391.17 473.32L1405.67 473.32L1405.67 487.82L1391.17 487.82z" fill="#e73635"></path><path d="M1249.19 238.64L1286.34 238.64L1286.34 275.79L1249.19 275.79z" fill="#d3b714"></path><path d="M951.16 311.26a31.7 31.7 0 1 0-54.29-32.75z" fill="#d3b714"></path><path d="M1000.46 424.27a45.98 45.98 0 1 0-90.06 18.6z" fill="#d3b714"></path><path d="M1050.25 121.45 a43.22 43.22 0 1 0 86.44 0 a43.22 43.22 0 1 0 -86.44 0z" fill="rgba(136, 200, 140, 1)"></path><path d="M1094.77 250.33 a4.79 4.79 0 1 0 9.58 0 a4.79 4.79 0 1 0 -9.58 0z" fill="#d3b714"></path><path d="M174.12 31.86L182.12 31.86L182.12 39.86L174.12 39.86z" stroke="rgba(136, 200, 140, 1)"></path><path d="M1244.55 272.16a41.78 41.78 0 1 0 46.42-69.48z" fill="#e73635"></path><path d="M733.61 502.55a26.09 26.09 0 1 0-47.88-20.75z" fill="rgba(136, 200, 140, 1)"></path><path d="M181.83 541.64L215.35 541.64L215.35 559.91L181.83 559.91z" stroke="#d3b714"></path><path d="M151.19 291.04L186.75 291.04L186.75 325.91L151.19 325.91z" fill="rgba(136, 200, 140, 1)"></path><path d="M1107.24 100.46 a28.98 28.98 0 1 0 57.96 0 a28.98 28.98 0 1 0 -57.96 0z" stroke="rgba(136, 200, 140, 1)"></path><path d="M1000.73 92.89a34.87 34.87 0 1 0 54.54-43.48z" fill="#d3b714"></path><path d="M878.93 425.65L906.36 425.65L906.36 465.09L878.93 465.09z" fill="#d3b714"></path><path d="M816.22 332.29a42.11 42.11 0 1 0-2.68-84.18z" stroke="rgba(136, 200, 140, 1)"></path><path d="M336.66 242.6L369.06 242.6L369.06 275L336.66 275z" stroke="#d3b714"></path><path d="M696 69.84L706.78 69.84L706.78 80.62L696 80.62z" stroke="#e73635"></path><path d="M1187.68 41.22L1205.37 41.22L1205.37 75.21L1187.68 75.21z" fill="#d3b714"></path><path d="M1336.74 343.77L1353.74 343.77L1353.74 382.98L1336.74 382.98z" fill="#e73635"></path><path d="M462.54 216.42 a53.96 53.96 0 1 0 107.92 0 a53.96 53.96 0 1 0 -107.92 0z" fill="rgba(136, 200, 140, 1)"></path><path d="M784.71 31.57L829.87 31.57L829.87 76.73L784.71 76.73z" fill="rgba(136, 200, 140, 1)"></path><path d="M1355.66 551.81L1391.38 551.81L1391.38 587.53L1355.66 587.53z" fill="rgba(136, 200, 140, 1)"></path><path d="M824.28 111.33L869.74 111.33L869.74 156.79L824.28 156.79z" stroke="#d3b714"></path><path d="M471.29 133.49L515.67 133.49L515.67 168.69L471.29 168.69z" stroke="rgba(136, 200, 140, 1)"></path><path d="M139.77 227.19 a28.97 28.97 0 1 0 57.94 0 a28.97 28.97 0 1 0 -57.94 0z" stroke="#e73635"></path><path d="M794.12 251.84L809.85 251.84L809.85 300.82L794.12 300.82z" stroke="rgba(136, 200, 140, 1)"></path><path d="M1037.78 147.09a53.55 53.55 0 1 0-1.27-107.09z" stroke="#e73635"></path><path d="M970.59 276.82L993.47 276.82L993.47 315.76L970.59 315.76z" fill="rgba(136, 200, 140, 1)"></path><path d="M210.42 51.42 a20.31 20.31 0 1 0 40.62 0 a20.31 20.31 0 1 0 -40.62 0z" stroke="#d3b714"></path><path d="M518.3 445.67L558.94 445.67L558.94 486.31L518.3 486.31z" stroke="rgba(136, 200, 140, 1)"></path></g><defs><mask id="SvgjsMask1033"><rect width="1440" height="560" fill="#ffffff"></rect></mask></defs></svg>