<svg xmlns="http://www.w3.org/2000/svg" version="1.1" xmlns:xlink="http://www.w3.org/1999/xlink" xmlns:svgjs="http://svgjs.dev/svgjs" width="1440" height="560" preserveAspectRatio="none" viewBox="0 0 1440 560"><g mask="url(&quot;#SvgjsMask1017&quot;)" fill="none"><rect width="1440" height="560" x="0" y="0" fill="rgba(209, 250, 229, 1)"></rect><path d="M454.08 481.43a31.53 31.53 0 1 0-39.68-49.02z" stroke="#037b0b"></path><path d="M901.2 27.54 a12.49 12.49 0 1 0 24.98 0 a12.49 12.49 0 1 0 -24.98 0z" fill="#d3b714"></path><path d="M823.35 309.88L823.99 309.88L823.99 310.52L823.35 310.52z" fill="#037b0b"></path><path d="M1030.4 101.14a26.32 26.32 0 1 0-48.01 21.6z" stroke="#d3b714"></path><path d="M1043.27 201.93a44.24 44.24 0 1 0 69.76-54.42z" fill="#d3b714"></path><path d="M796.37 98.62 a43.88 43.88 0 1 0 87.76 0 a43.88 43.88 0 1 0 -87.76 0z" stroke="#037b0b"></path><path d="M1328.37 163.54a18.33 18.33 0 1 0 36.48 3.6z" stroke="#037b0b"></path><path d="M924.18 125.3 a10.12 10.12 0 1 0 20.24 0 a10.12 10.12 0 1 0 -20.24 0z" stroke="#d3b714"></path><path d="M893.79 373.64L929.55 373.64L929.55 409.58L893.79 409.58z" fill="#037b0b"></path><path d="M142.07 91.35L197.42 91.35L197.42 110.01L142.07 110.01z" stroke="#d3b714"></path><path d="M40.23 21.48L92.5 21.48L92.5 73.75L40.23 73.75z" stroke="#e73635"></path><path d="M824.77 100.48L836.23 100.48L836.23 111.94L824.77 111.94z" fill="#e73635"></path><path d="M526.6 459.94 a17.66 17.66 0 1 0 35.32 0 a17.66 17.66 0 1 0 -35.32 0z" fill="#d3b714"></path><path d="M961.62 553.19 a24.02 24.02 0 1 0 48.04 0 a24.02 24.02 0 1 0 -48.04 0z" fill="#d3b714"></path><path d="M550.88 159.24 a28.88 28.88 0 1 0 57.76 0 a28.88 28.88 0 1 0 -57.76 0z" fill="#037b0b"></path><path d="M1119.62 454.26L1170.19 454.26L1170.19 504.83L1119.62 504.83z" stroke="#037b0b"></path><path d="M1071.95 143.79L1108.59 143.79L1108.59 183.05L1071.95 183.05z" stroke="#037b0b"></path><path d="M164.87 482.86L201.26 482.86L201.26 519.25L164.87 519.25z" fill="#e73635"></path><path d="M321.17 303.1L332.59 303.1L332.59 325.84L321.17 325.84z" stroke="#e73635"></path><path d="M683.01 120.19L684.25 120.19L684.25 121.43L683.01 121.43z" stroke="#e73635"></path><path d="M1236.45 182.53a13.66 13.66 0 1 0-15.19-22.71z" fill="#037b0b"></path><path d="M246.34 169.25L255.21 169.25L255.21 211.7L246.34 211.7z" stroke="#d3b714"></path><path d="M762.91 319.48 a16.39 16.39 0 1 0 32.78 0 a16.39 16.39 0 1 0 -32.78 0z" fill="#037b0b"></path><path d="M1113.65 16.53L1165.87 16.53L1165.87 68.75L1113.65 68.75z" fill="#e73635"></path><path d="M1019.2 425.99 a47.93 47.93 0 1 0 95.86 0 a47.93 47.93 0 1 0 -95.86 0z" stroke="#e73635"></path><path d="M320.38 0.56L342.68 0.56L342.68 22.86L320.38 22.86z" fill="#d3b714"></path><path d="M1025.56 267.98L1029.67 267.98L1029.67 317.91L1025.56 317.91z" stroke="#d3b714"></path><path d="M293.42 473.53L329.55 473.53L329.55 509.66L293.42 509.66z" stroke="#e73635"></path><path d="M211 543.94L222.41 543.94L222.41 573.41L211 573.41z" stroke="#037b0b"></path><path d="M1330.48 272.44 a52.87 52.87 0 1 0 105.74 0 a52.87 52.87 0 1 0 -105.74 0z" fill="#e73635"></path><path d="M275.15 548.78a4.11 4.11 0 1 0 7.76 2.72z" stroke="#037b0b"></path><path d="M341.59 418.84L378.36 418.84L378.36 459.66L341.59 459.66z" fill="#d3b714"></path><path d="M545.38 288.01L550.33 288.01L550.33 337.11L545.38 337.11z" fill="#e73635"></path></g><defs><mask id="SvgjsMask1017"><rect width="1440" height="560" fill="#ffffff"></rect></mask></defs></svg>