<svg xmlns="http://www.w3.org/2000/svg" version="1.1" xmlns:xlink="http://www.w3.org/1999/xlink" xmlns:svgjs="http://svgjs.dev/svgjs" width="1440" height="560" preserveAspectRatio="none" viewBox="0 0 1440 560"><g mask="url(&quot;#SvgjsMask1001&quot;)" fill="none"><rect width="1440" height="560" x="0" y="0" fill="rgba(87, 149, 212, 1)"></rect><path d="M450.63 52.71L467.94 52.71L467.94 70.02L450.63 70.02z" stroke="#e73635"></path><path d="M1396.86 444.86a39.52 39.52 0 1 0-57.65 54.08z" stroke="#d3b714"></path><path d="M1119.3 59.84a36.16 36.16 0 1 0-47.53-54.51z" stroke="#d3b714"></path><path d="M168.62 453.5 a47.14 47.14 0 1 0 94.28 0 a47.14 47.14 0 1 0 -94.28 0z" stroke="#e73635"></path><path d="M1399.08 140.03L1453.86 140.03L1453.86 163.86L1399.08 163.86z" fill="#037b0b"></path><path d="M912.95 438.43 a41.76 41.76 0 1 0 83.52 0 a41.76 41.76 0 1 0 -83.52 0z" fill="#037b0b"></path><path d="M671.2 548.37L675.02 548.37L675.02 552.19L671.2 552.19z" fill="#e73635"></path><path d="M891.49 441.85a40.56 40.56 0 1 0-17.09 79.29z" stroke="#d3b714"></path><path d="M707.43-16.32a43.39 43.39 0 1 0 60.97 61.76z" fill="#037b0b"></path><path d="M221.48 337.82 a16.44 16.44 0 1 0 32.88 0 a16.44 16.44 0 1 0 -32.88 0z" fill="#e73635"></path><path d="M982.93 253.62L1014.02 253.62L1014.02 260.48L982.93 260.48z" stroke="#d3b714"></path><path d="M1389.19 214.27L1391.92 214.27L1391.92 249.42L1389.19 249.42z" stroke="#037b0b"></path><path d="M247.48 61.81L288.37 61.81L288.37 102.7L247.48 102.7z" fill="#037b0b"></path><path d="M362.23 440.13L374.81 440.13L374.81 452.71L362.23 452.71z" stroke="#d3b714"></path><path d="M1302.64 442.45a5.14 5.14 0 1 0-7.79 6.71z" fill="#d3b714"></path><path d="M584.78 432.41L597.86 432.41L597.86 484.7L584.78 484.7z" fill="#d3b714"></path><path d="M87.31 8.84a46.13 46.13 0 1 0-80.5 45.06z" fill="#e73635"></path><path d="M251.61 352.55L264.71 352.55L264.71 359.17L251.61 359.17z" fill="#d3b714"></path><path d="M102.23 275.46L149.48 275.46L149.48 322.71L102.23 322.71z" fill="#d3b714"></path><path d="M302.39 412.04a42.24 42.24 0 1 0 79.52-28.53z" fill="#e73635"></path><path d="M421.55 13.69L467.42 13.69L467.42 59.56L421.55 59.56z" stroke="#e73635"></path><path d="M1067.31 220.48 a29.24 29.24 0 1 0 58.48 0 a29.24 29.24 0 1 0 -58.48 0z" stroke="#d3b714"></path><path d="M25.54 566.5a39.55 39.55 0 1 0 74.18-27.48z" stroke="#e73635"></path><path d="M619 441.44L626.82 441.44L626.82 449.26L619 449.26z" stroke="#e73635"></path><path d="M1119.63 171.29L1162.75 171.29L1162.75 219.68L1119.63 219.68z" fill="#037b0b"></path><path d="M680.02 257.96L725.19 257.96L725.19 303.13L680.02 303.13z" stroke="#d3b714"></path><path d="M640.78 419.36a5.77 5.77 0 1 0-11.29 2.39z" stroke="#037b0b"></path><path d="M1426.34 47.15a2.04 2.04 0 1 0-2.22 3.42z" stroke="#e73635"></path><path d="M24.02 504.78L75.16 504.78L75.16 555.92L24.02 555.92z" stroke="#037b0b"></path><path d="M891.48 191.86a7.18 7.18 0 1 0 4.94 13.48z" stroke="#d3b714"></path><path d="M1013.45 543.44L1025.19 543.44L1025.19 555.18L1013.45 555.18z" fill="#037b0b"></path><path d="M383.75 57.01L422.48 57.01L422.48 100.18L383.75 100.18z" stroke="#d3b714"></path><path d="M119.16 460.95a37.21 37.21 0 1 0-8.46-73.94z" fill="#e73635"></path></g><defs><mask id="SvgjsMask1001"><rect width="1440" height="560" fill="#ffffff"></rect></mask></defs></svg>