<svg xmlns="http://www.w3.org/2000/svg" version="1.1" xmlns:xlink="http://www.w3.org/1999/xlink" xmlns:svgjs="http://svgjs.dev/svgjs" width="1440" height="560" preserveAspectRatio="none" viewBox="0 0 1440 560"><g mask="url(&quot;#SvgjsMask1443&quot;)" fill="none"><path d="M386.65 237.18a33.58 33.58 0 1 0 23.06-63.08z" stroke="#e73635"></path><path d="M1007.59 506.29L1045.79 506.29L1045.79 522.65L1007.59 522.65z" fill="#d3b714"></path><path d="M399.98 349.95 a33.58 33.58 0 1 0 67.16 0 a33.58 33.58 0 1 0 -67.16 0z" stroke="#e73635"></path><path d="M1303.15 162.74L1357.72 162.74L1357.72 217.31L1303.15 217.31z" stroke="#037b0b"></path><path d="M75.95 133.34a51.85 51.85 0 1 0 76.06-70.48z" fill="#d3b714"></path><path d="M868.88 370.82L871.93 370.82L871.93 373.87L868.88 373.87z" stroke="#d3b714"></path><path d="M797.51 282.03 a21.55 21.55 0 1 0 43.1 0 a21.55 21.55 0 1 0 -43.1 0z" stroke="#e73635"></path><path d="M1273.99 270.2a50.43 50.43 0 1 0-96.92-27.88z" stroke="#d3b714"></path><path d="M1289.14 486.49L1325.18 486.49L1325.18 522.53L1289.14 522.53z" fill="#d3b714"></path><path d="M996.42 452.82L1020.01 452.82L1020.01 493.59L996.42 493.59z" stroke="#d3b714"></path><path d="M1309.5 218.46 a4.62 4.62 0 1 0 9.24 0 a4.62 4.62 0 1 0 -9.24 0z" fill="#d3b714"></path><path d="M830.41 41.19L877.55 41.19L877.55 88.33L830.41 88.33z" stroke="#e73635"></path><path d="M1119.58 161.34L1150.33 161.34L1150.33 192.09L1119.58 192.09z" fill="#037b0b"></path><path d="M257.17 443.52L272.42 443.52L272.42 458.77L257.17 458.77z" stroke="#037b0b"></path><path d="M1139.77 362.2L1144.54 362.2L1144.54 370.66L1139.77 370.66z" fill="#d3b714"></path><path d="M691.55 58.34L702.49 58.34L702.49 109.46L691.55 109.46z" stroke="#e73635"></path><path d="M913.02 163.17L965.08 163.17L965.08 169.39L913.02 169.39z" stroke="#e73635"></path><path d="M422.6 494.03L443.62 494.03L443.62 515.05L422.6 515.05z" fill="#d3b714"></path><path d="M253.38 319.9L295.64 319.9L295.64 362.16L253.38 362.16z" stroke="#e73635"></path><path d="M1373.59 274.88 a26.81 26.81 0 1 0 53.62 0 a26.81 26.81 0 1 0 -53.62 0z" fill="#e73635"></path><path d="M1276.31 312.15a53.78 53.78 0 1 0-75.47-76.64z" stroke="#037b0b"></path><path d="M1100.81 205L1141.1 205L1141.1 237.14L1100.81 237.14z" fill="#037b0b"></path><path d="M154.96 401.48 a34.22 34.22 0 1 0 68.44 0 a34.22 34.22 0 1 0 -68.44 0z" stroke="#d3b714"></path><path d="M1194.7 538.34L1236.72 538.34L1236.72 580.36L1194.7 580.36z" fill="#037b0b"></path><path d="M1133.29 11.26 a30.69 30.69 0 1 0 61.38 0 a30.69 30.69 0 1 0 -61.38 0z" stroke="#d3b714"></path><path d="M821.17 421.92a27.34 27.34 0 1 0-50.74 20.37z" stroke="#d3b714"></path><path d="M1142.01 463.79L1190.63 463.79L1190.63 512.41L1142.01 512.41z" stroke="#e73635"></path><path d="M333.35 356.93L387.73 356.93L387.73 378.1L333.35 378.1z" fill="#037b0b"></path><path d="M282.65 33.55L301.46 33.55L301.46 51.83L282.65 51.83z" stroke="#e73635"></path><path d="M1327.42 322.48a21.77 21.77 0 1 0 33.22-28.14z" fill="#e73635"></path><path d="M154.42 262.52L163.16 262.52L163.16 273.65L154.42 273.65z" stroke="#037b0b"></path><path d="M1168.35 88.94L1184.36 88.94L1184.36 104.95L1168.35 104.95z" fill="#037b0b"></path><path d="M1342.8 353.71a18.29 18.29 0 1 0 24.48-27.19z" stroke="#037b0b"></path></g><defs><mask id="SvgjsMask1443"><rect width="1440" height="560" fill="#ffffff"></rect></mask></defs></svg>